<?xml version="1.0" encoding="utf-8"?>
<!-- Generator: Adobe Illustrator 22.0.1, SVG Export Plug-In . SVG Version: 6.00 Build 0)  -->
<svg version="1.1" id="Warstwa_1" xmlns="http://www.w3.org/2000/svg" xmlns:xlink="http://www.w3.org/1999/xlink" x="0px" y="0px"
	 viewBox="0 0 309 87" style="enable-background:new 0 0 309 87;" xml:space="preserve">
<style type="text/css">
	.st0{fill:#FFFFFF;}
	.st1{fill:#00B7FF;}
</style>
<g>
	<g>
		<path class="st0" d="M104,40.8v-0.5h-8.5v-7.8h17.4v22.3h-6.6l-1.3-3c-2.5,2.4-6,3.6-10.2,3.6c-8.2,0-14-4.8-14-14.6V28.8
			c0-10.2,6.3-14.9,16.1-14.9c9.4,0,16,3.7,16,13.1v0.7H104v-0.7c0-3.7-2.8-5.3-7.1-5.3c-4.4,0-7.2,2-7.2,7.1v11.9
			c0,4.5,2.8,6.8,7.1,6.8C101.2,47.6,104,45.3,104,40.8z"/>
		<path class="st0" d="M119.5,14.5h17.1c8.3,0,13.8,3.9,13.8,13.4c0,6.6-2.6,10.5-7,12.3l7.5,14.5h-10.3l-6.6-13.4h-5.7v13.4h-8.9
			V14.5z M128.4,33.6h7.9c3,0,4.9-1.4,4.9-5.7c0-4.3-2-5.6-4.9-5.6h-7.9V33.6z"/>
		<path class="st0" d="M190,54.8h-9.7l-2.6-8.5h-13.6l-2.6,8.5h-8.8l13.2-40.2h10.9L190,54.8z M166.5,38.5h8.9L170.9,24L166.5,38.5z
			"/>
		<path class="st0" d="M193.5,14.5h26.9v7.8h-18v10.2h15.1v7.8h-15.1v14.5h-8.9V14.5z"/>
		<path class="st0" d="M223.8,14.5h8.9v40.2h-8.9V14.5z"/>
		<path class="st0" d="M271.2,40.8c0,9.7-6.3,14.6-16.1,14.6c-9.7,0-16-4.9-16-14.6V28.6c0-9.7,6.3-14.6,16.1-14.6
			c9.7,0,16,4.9,16,14.6V40.8z M262.2,28.6c0-4.5-2.8-6.8-7.1-6.8c-4.4,0-7.2,2.3-7.2,6.8v12.2c0,4.5,2.8,6.8,7.1,6.8
			c4.4,0,7.2-2.3,7.2-6.8V28.6z"/>
	</g>
	<g>
		<path class="st0" d="M272.3,51.2h3.1v3.6h-3.1V51.2z"/>
		<path class="st0" d="M289.4,50.1c0,3.2-1.8,4.9-4.7,4.9c-1.4,0-2.6-0.4-3.4-1.2v5.9h-2.7V42.1h2.1l0.4,1.3c0.8-1,2.1-1.6,3.7-1.6
			c2.8,0,4.6,1.7,4.6,4.9V50.1z M286.7,46.6c0-1.6-1-2.4-2.6-2.4c-1.6,0-2.7,0.8-2.7,2.4v3.6c0,1.6,1.1,2.4,2.7,2.4
			c1.6,0,2.6-0.8,2.6-2.4V46.6z"/>
		<path class="st0" d="M292.3,36.5h2.7v18.2h-2.7V36.5z"/>
	</g>
	<path class="st1" d="M37.7,18.5L15.1,31.6v26.1l22.6,13.1l22.6-13.1V31.6L37.7,18.5z M56.6,55.6L37.7,66.5L18.9,55.6V33.7
		l18.9-10.9l18.9,10.9V55.6z"/>
	<path class="st1" d="M58.9,60.1L40,71v4.3l22.6-13.1L58.9,60.1z"/>
	<path class="st1" d="M35.5,14L12.8,27l3.7,2.2l18.9-10.9V14z"/>
	<g>
		<path class="st0" d="M43.5,49.1v-1.3h-6.9v-3.9H48v14h-3.9l0-2.3c-1.6,1.8-4.1,2.7-7.2,2.7c-5.7,0-9.4-3.2-9.4-9.5v-7.9
			c0-6.5,4-9.6,10.3-9.6c6.1,0,10.2,2.6,10.2,8.4v0.3h-4.5v-0.3c0-3-2.2-4.5-5.7-4.5c-3.6,0-5.9,1.8-5.9,5.8v7.9
			c0,3.6,2.2,5.6,5.8,5.6S43.5,52.5,43.5,49.1z"/>
	</g>
</g>
<g>
	<path class="st0" d="M81.3,61.4h10.5v1.4h-4.4v12.1h-1.6V62.8h-4.4V61.4z"/>
	<path class="st0" d="M94.3,74.9l-3.1-9.8h1.5l2.5,8l2.5-8h1.5l2.5,8l2.5-8h1.4l-3.1,9.8h-1.7l-2.4-7.6L96,74.9H94.3z"/>
	<path class="st0" d="M115,71.4c0,2.4-1.6,3.7-4.1,3.7c-2.4,0-4-1.3-4-3.7v-2.8c0-2.4,1.6-3.7,4.1-3.7c2.4,0,4,1.2,4,3.7V71.4z
		 M113.5,68.5c0-1.5-1-2.3-2.5-2.3c-1.6,0-2.6,0.8-2.6,2.3v3c0,1.5,1,2.3,2.6,2.3c1.6,0,2.6-0.8,2.6-2.3V68.5z"/>
	<path class="st0" d="M117.9,65.1h1.5v10.4c0,2.4-0.6,3.9-3.7,3.2v-1.2c1.7,0.3,2.2-0.2,2.2-1.8V65.1z M117.9,61h1.5v2.2h-1.5V61z"
		/>
	<path class="st0" d="M129.9,71.9c-0.1,2.1-1.6,3.2-4,3.2c-2.5,0-4.1-1.3-4.1-3.7v-2.8c0-2.4,1.6-3.7,4.1-3.7c2.4,0,4,1.2,4,3.7v1.8
		h-6.6v1.1c0,1.4,0.9,2.3,2.6,2.3c1.6,0,2.4-0.8,2.5-1.9H129.9z M123.3,69.2h5.1v-0.7c0-1.5-1-2.3-2.5-2.3c-1.6,0-2.6,0.8-2.6,2.3
		V69.2z"/>
	<path class="st0" d="M140.8,65.1h3v1.3h-3v8.5h-1.5v-8.5h-2.1v-1.3h2.1v-0.9c0-2.7,0.6-4.2,4.5-3.6v1.2c-2.5-0.3-3,0.2-3,2.2V65.1z
		"/>
	<path class="st0" d="M153.1,71.4c0,2.4-1.6,3.7-4.1,3.7s-4-1.3-4-3.7v-2.8c0-2.4,1.6-3.7,4.1-3.7c2.4,0,4,1.2,4,3.7V71.4z
		 M151.6,68.5c0-1.5-1-2.3-2.5-2.3c-1.6,0-2.6,0.8-2.6,2.3v3c0,1.5,1,2.3,2.6,2.3c1.6,0,2.6-0.8,2.6-2.3V68.5z"/>
	<path class="st0" d="M155.5,65.1h1.2l0.2,1.2c0.9-1.2,2.4-1.6,3.9-1.3v1.3c-2.3-0.4-3.8,0.5-3.8,2.1v6.4h-1.5V65.1z"/>
	<path class="st0" d="M170.4,74.9h-1.2l-0.2-1.1c-0.7,0.9-1.7,1.3-3.1,1.3c-2.2,0-3.7-1.2-3.7-3.6v-6.4h1.5v6.5c0,1.5,1,2.2,2.5,2.2
		c1.5,0,2.6-0.8,2.6-2.3v-6.4h1.5V74.9z"/>
	<path class="st0" d="M173.1,65.1h1.2l0.2,1c0.6-0.8,1.5-1.2,2.7-1.2c1.3,0,2.3,0.5,2.8,1.5c0.6-1,1.6-1.5,2.9-1.5
		c2,0,3.2,1.1,3.2,3.4v6.6h-1.5v-6.6c0-1.5-0.8-2.1-2.1-2.1c-1.2,0-2.1,0.7-2.2,2.1v6.6h-1.5v-6.6c0-1.5-0.8-2.1-2.1-2.1
		c-1.3,0-2.2,0.7-2.2,2.2v6.5h-1.5V65.1z"/>
	<path class="st0" d="M194.2,68.6c0-2.4,1.4-3.7,3.7-3.7c1.3,0,2.4,0.5,3.1,1.3l0.2-1.2h1.2v10.1c0,2.4-1.6,3.7-4.1,3.7
		c-2.5,0-4-1.3-4-3.5v0h1.5v0.1c0,1.3,0.9,2.1,2.5,2.1c1.6,0,2.6-0.8,2.6-2.3v-1.8c-0.7,0.8-1.7,1.2-2.9,1.2c-2.2,0-3.7-1.3-3.7-3.7
		V68.6z M195.7,71.1c0,1.5,1,2.3,2.5,2.3c1.6,0,2.6-0.9,2.6-2.4v-2.4c0-1.5-1-2.4-2.6-2.4c-1.5,0-2.5,0.8-2.5,2.3V71.1z"/>
	<path class="st0" d="M205,65.1h1.2l0.2,1.2c0.9-1.2,2.4-1.6,3.9-1.3v1.3c-2.3-0.4-3.8,0.5-3.8,2.1v6.4H205V65.1z"/>
	<path class="st0" d="M214.9,69.2c1.3,0,2.3,0.3,3,1v-1.9c0-1.4-0.9-2.1-2.3-2.1c-1.5,0-2.3,0.6-2.3,1.9h-1.5c0-2.1,1.4-3.1,3.8-3.1
		c2.3,0,3.8,1.1,3.8,3.5v6.5h-1.2l-0.2-1c-0.6,0.8-1.7,1.2-3.2,1.2c-2.2,0-3.6-0.9-3.6-3C211.3,70.1,212.7,69.2,214.9,69.2z
		 M215.3,73.8c1.5,0,2.6-0.6,2.6-1.7c0-1.1-1.1-1.7-2.6-1.7c-1.5,0-2.5,0.5-2.5,1.7S213.7,73.8,215.3,73.8z"/>
	<path class="st0" d="M224.3,65.1h3v1.3h-3v8.5h-1.5v-8.5h-2.1v-1.3h2.1v-0.9c0-2.7,0.6-4.2,4.5-3.6v1.2c-2.5-0.3-3,0.2-3,2.2V65.1z
		"/>
	<path class="st0" d="M228.7,61h1.5v2.2h-1.5V61z M228.7,65.1h1.5v9.8h-1.5V65.1z"/>
	<path class="st0" d="M240.7,71.6L240.7,71.6c0,2.2-1.5,3.5-4,3.5c-2.5,0-4.1-1.3-4.1-3.7v-2.8c0-2.4,1.6-3.7,4.1-3.7
		c2.5,0,4,1.3,4,3.5v0h-1.5v-0.1c0-1.3-0.9-2.1-2.5-2.1c-1.6,0-2.6,0.8-2.6,2.3v3c0,1.5,1,2.3,2.6,2.3c1.6,0,2.5-0.8,2.5-2.1v-0.1
		H240.7z"/>
	<path class="st0" d="M248.4,66.4h-6v-1.3h7.8v1.3l-6,7.2h6v1.3h-7.8v-1.3L248.4,66.4z"/>
	<path class="st0" d="M252.4,65.1h1.2l0.2,1.1c0.7-0.9,1.7-1.3,3.1-1.3c2.2,0,3.7,1.2,3.7,3.6v6.4H259v-6.5c0-1.5-1-2.2-2.5-2.2
		c-1.5,0-2.6,0.8-2.6,2.3v6.4h-1.5V65.1z"/>
	<path class="st0" d="M271,71.9c-0.1,2.1-1.6,3.2-4,3.2c-2.5,0-4.1-1.3-4.1-3.7v-2.8c0-2.4,1.6-3.7,4.1-3.7c2.4,0,4,1.2,4,3.7v1.8
		h-6.6v1.1c0,1.4,0.9,2.3,2.6,2.3c1.6,0,2.4-0.8,2.5-1.9H271z M264.4,69.2h5.1v-0.7c0-1.5-1-2.3-2.5-2.3c-1.6,0-2.6,0.8-2.6,2.3
		V69.2z"/>
</g>
</svg>
